<?xml version="1.0" encoding="utf-8"?>
<svg version="1.0" xmlns="http://www.w3.org/2000/svg" width="1800.000000pt" height="981.000000pt" viewBox="0 0 1800.000000 981.000000" preserveAspectRatio="xMidYMid meet">
  <g transform="translate(0.000000,981.000000) scale(0.100000,-0.100000)" fill="#000000" stroke="none">
    <path d="M10672 6576 c-4 -6 -8 -605 -7 -1331 l0 -1320 113 -3 112 -3 0 13 c4 253 -1 2643 -6 2647 -3 3 -50 7 -105 7 l-99 1 -8 -11z"/>
    <path d="M6923 6268 l-10 -13 7 -200 7 -200 -10 -12 -9 -13 -173 7 -172 6 -6 -24 c-8 -39 -1 -169 11 -181 l11 -11 163 11 c89 6 166 8 171 3 4 -4 8 -307 10 -673 l2 -665 10 -14 c6 -8 19 -40 30 -72 10 -31 24 -62 32 -68 7 -6 13 -18 13 -25 0 -7 25 -39 56 -70 l57 -56 75 -36 c81 -39 126 -49 244 -59 l77 -5 82 12 c103 15 190 46 262 93 l27 18 0 20 c0 28 -72 159 -87 159 -7 0 -38 -14 -68 -31 -74 -42 -145 -59 -235 -59 -170 1 -256 56 -318 203 l-26 62 -6 620 c-3 341 -4 625 -2 632 6 20 19 20 319 10 l292 -10 16 13 15 12 0 82 c0 44 -4 87 -9 94 l-8 14 -174 -1 c-96 -1 -233 -4 -304 -7 l-130 -7 -11 14 -10 14 9 203 10 204 -14 9 c-8 5 -60 9 -115 9 l-102 0 -9 -12z" style="fill: rgb(97, 95, 95);"/>
    <path d="M2790 5849 c-58 -4 -114 -11 -125 -14 -11 -4 -47 -12 -80 -20 -76 -17 -186 -56 -250 -90 -80 -43 -168 -97 -191 -117 l-22 -19 46 -85 47 -84 23 0 c12 0 33 9 45 20 96 90 226 151 427 201 l55 13 140 -1 140 0 55 -16 c91 -26 136 -45 187 -76 l49 -30 50 -63 51 -63 28 -70 28 -70 7 -110 c4 -60 6 -115 3 -121 l-4 -12 -407 1 -407 2 -75 -13 c-402 -69 -591 -303 -530 -658 55 -318 451 -510 911 -440 212 33 409 146 478 275 7 12 18 20 24 18 l12 -4 0 -139 0 -139 115 0 115 0 -3 645 -3 645 -10 65 c-12 80 -38 170 -56 191 -7 8 -13 19 -13 24 0 22 -87 139 -134 179 -163 139 -410 199 -726 175z m712 -1016 c2 -10 1 -92 -2 -183 l-6 -165 -22 -40 c-85 -161 -233 -278 -412 -328 l-75 -21 -165 0 -165 1 -50 17 c-88 31 -135 57 -188 106 l-53 48 -29 59 -29 58 0 90 0 90 21 46 c93 202 209 230 969 237 l202 2 4 -17z" style="fill: rgb(97, 95, 95);"/>
    <path d="M8961 5849 c-46 -5 -104 -16 -128 -24 -24 -8 -52 -15 -62 -15 -10 0 -50 -14 -87 -32 -258 -120 -406 -274 -520 -543 -7 -16 -23 -77 -35 -134 l-22 -105 5 -155 5 -156 17 -60 c19 -68 21 -71 70 -178 224 -489 854 -692 1371 -442 l90 43 82 66 c172 139 293 334 334 536 l13 65 0 170 0 170 -15 75 -15 75 -47 99 c-70 148 -146 242 -288 359 -45 36 -269 147 -297 147 -13 0 -38 7 -58 15 -19 8 -87 19 -152 25 -131 11 -142 11 -261 -1z m309 -209 c14 -4 54 -16 90 -26 253 -71 438 -290 501 -589 11 -52 11 -238 0 -290 -31 -146 -71 -237 -158 -353 l-54 -73 -58 -43 c-49 -36 -105 -67 -212 -117 -9 -4 -47 -15 -85 -25 l-69 -17 -120 0 -120 -1 -70 18 c-348 89 -572 388 -574 766 -1 103 28 253 60 310 4 8 20 38 34 65 42 83 51 95 108 154 124 127 274 204 452 231 58 9 238 3 275 -10z" style="fill: rgb(97, 95, 95);"/>
    <path d="M12290 5846 c-286 -44 -490 -163 -659 -386 -56 -74 -121 -195 -121 -225 0 -9 -6 -28 -14 -43 -7 -15 -21 -74 -31 -132 l-17 -105 5 -110 c12 -262 89 -456 253 -634 77 -85 284 -231 325 -231 6 0 25 -6 42 -14 181 -81 601 -84 757 -5 8 4 55 27 104 51 48 24 99 49 113 56 26 15 159 135 181 165 8 10 29 34 48 55 73 79 66 86 -93 83 l-126 -2 -74 -69 -75 -68 -76 -37 c-43 -21 -85 -42 -96 -47 -21 -11 -81 -22 -207 -40 l-86 -12 -114 19 c-63 10 -130 24 -149 33 -139 58 -225 116 -314 213 l-56 60 0 20 0 19 99 0 99 0 6 16 c3 9 6 33 6 54 l0 39 13 8 c15 9 832 12 848 3 6 -4 9 -18 7 -31 l-3 -24 -387 -3 -387 -2 -6 -21 -7 -20 13 -15 12 -15 671 5 671 4 45 26 c25 14 56 31 70 38 l25 13 282 3 281 3 12 14 12 14 -7 21 -6 20 -249 0 -249 0 -5 9 c-3 4 10 24 29 43 l35 35 41 12 40 12 108 -2 c59 -1 113 1 119 5 15 9 15 39 0 54 l-12 12 -120 0 -121 0 -49 -17 -49 -18 -103 -102 -103 -102 -54 -16 -54 -16 -134 3 -134 3 -3 26 c-2 14 3 30 10 36 l13 11 145 4 145 3 37 23 c21 13 83 72 139 132 l102 110 36 10 c20 5 79 10 132 10 l97 0 23 20 24 20 -25 21 -24 21 -111 -4 -110 -3 -49 -24 -48 -24 -91 -104 -91 -105 -35 -18 -36 -18 -125 -2 c-69 -2 -133 -2 -142 -1 l-18 1 0 28 c0 15 5 33 12 40 l12 12 113 0 114 0 32 14 c41 17 66 40 157 146 40 47 93 100 118 118 l46 32 153 0 154 0 20 10 19 11 0 24 0 24 -19 11 -20 10 -111 0 -112 0 -72 -17 -71 -17 -76 -80 c-42 -45 -103 -110 -136 -144 l-59 -64 -44 -9 c-25 -4 -81 -8 -126 -9 l-80 0 -12 12 c-7 7 -12 28 -12 48 0 57 -17 102 -56 141 l-36 37 20 11 c11 6 32 11 45 11 13 0 32 9 43 21 l18 20 -10 17 -11 17 -52 3 -53 3 -24 -15 c-32 -22 -28 -25 -70 65 l-38 80 -32 29 -32 28 -52 11 -51 11 -258 0 -258 0 -56 -11 -56 -12 -34 -34 c-19 -18 -49 -67 -68 -108 -35 -76 -47 -87 -69 -60 l-12 15 -52 0 -52 0 -12 -12 c-7 -7 -12 -20 -12 -30 l0 -17 30 -16 c16 -8 40 -15 53 -15 40 0 39 -11 -8 -61 l-45 -48 0 -231 0 -230 -14 0 c-28 0 -68 72 -94 170 l-17 65 0 150 0 150 19 70 c11 39 25 79 33 90 7 11 13 25 13 32 0 22 71 131 122 187 139 154 323 238 548 253 l85 5 100 -21 c305 -64 510 -245 601 -531 10 -30 25 -60 32 -67 l15 -12 29 17 c16 9 52 44 79 76 l51 60 -7 35 c-17 92 -134 270 -246 376 -180 170 -378 248 -659 259 l-125 5 -85 -13z m490 -569 l34 -12 47 -80 c26 -44 49 -89 51 -99 l3 -19 -453 -1 c-250 -1 -456 3 -459 7 -7 11 55 130 89 172 36 44 25 42 363 43 l290 1 35 -12z m-775 -354 c79 -25 110 -70 71 -103 l-15 -11 -81 7 -81 7 -19 25 c-24 30 -26 65 -4 87 l16 16 32 -6 c17 -4 54 -14 81 -22z m1026 17 l19 -11 0 -33 0 -34 -17 -21 -18 -21 -76 -6 -75 -7 -22 12 -22 12 0 23 c0 32 25 50 95 71 33 9 65 19 70 20 18 6 26 5 46 -5z m-731 -136 l0 -94 20 0 20 0 0 99 0 99 14 5 c7 3 19 0 25 -6 l11 -11 0 -93 0 -93 20 0 20 0 0 99 0 99 13 5 c6 2 18 2 25 -1 l12 -4 0 -99 0 -99 20 0 19 0 3 98 3 97 22 3 22 3 3 -98 3 -98 20 0 20 0 3 98 3 98 22 -3 22 -3 1 -80 2 -80 14 -3 15 -3 7 23 c3 13 6 46 6 73 0 28 4 56 9 63 l8 14 24 -4 24 -3 -2 -64 c-2 -73 -16 -115 -51 -153 l-26 -28 -237 0 -236 0 -27 21 c-14 11 -26 26 -26 32 0 7 -6 24 -14 38 -17 34 -29 130 -17 147 l8 14 24 -4 24 -3 7 -75 8 -74 15 -15 c23 -23 28 -8 26 75 l-2 76 12 14 12 14 13 -11 14 -11 0 -94z m-285 -95 c36 -17 39 -41 6 -49 -34 -8 -129 4 -142 17 l-11 11 12 22 12 22 47 -4 c25 -3 60 -11 76 -19z m1023 -11 l3 -26 -18 -6 c-10 -3 -46 -7 -81 -8 l-63 -2 -9 14 c-17 27 58 60 125 57 l40 -2 3 -27z"/>
    <path d="M14670 5846 c-136 -20 -310 -76 -348 -113 -7 -7 -17 -13 -22 -13 -59 0 -347 -285 -324 -321 3 -5 63 -9 134 -9 l129 0 78 70 78 69 80 40 c103 52 216 82 331 88 l91 6 79 -17 c370 -80 575 -286 628 -633 l16 -102 -15 -93 c-54 -317 -256 -536 -567 -612 l-66 -16 -136 0 -137 0 -36 15 c-19 8 -45 15 -58 15 -12 0 -67 23 -122 50 l-100 51 -66 64 -67 65 -95 2 c-52 1 -114 2 -137 3 l-43 0 0 -21 c0 -40 122 -172 243 -265 110 -83 222 -131 408 -173 l72 -16 126 0 127 0 72 16 c147 32 232 67 343 140 50 34 169 148 187 180 14 25 46 54 58 54 l12 0 -6 -192 c-9 -320 -51 -454 -183 -590 -44 -45 -152 -118 -175 -118 -5 0 -20 -6 -32 -14 -12 -8 -58 -22 -102 -33 l-80 -18 -195 1 -195 1 -85 20 c-162 40 -316 112 -423 198 -73 59 -86 64 -105 38 -47 -68 -91 -140 -92 -151 -1 -75 364 -251 616 -296 l91 -16 196 0 197 0 82 16 c391 73 601 270 681 639 25 113 26 159 28 1090 l1 890 -113 0 -114 0 4 -182 4 -183 -14 0 c-8 0 -27 19 -44 43 -183 259 -525 386 -895 333z"/>
    <path d="M4399 5838 l-19 -7 0 -583 1 -583 14 -95 c19 -134 31 -172 84 -280 l46 -94 70 -71 c178 -180 459 -257 775 -211 l95 14 82 31 c130 48 212 107 286 205 56 73 79 96 90 89 l9 -6 -3 -161 -4 -161 108 -3 107 -3 0 18 c0 18 0 1867 0 1891 l0 12 -110 0 -111 0 -4 -13 c-3 -7 -7 -278 -8 -602 l-3 -590 -18 -55 c-9 -30 -24 -67 -32 -82 -7 -14 -14 -31 -14 -37 0 -42 -130 -190 -215 -246 -189 -123 -501 -142 -701 -44 l-69 34 -60 56 -60 57 -32 63 c-47 96 -61 137 -74 218 l-11 74 -2 581 -1 581 -98 5 c-54 3 -107 2 -118 -2z" style="fill: rgb(97, 95, 95);"/>
    <path d="M14845 5392 c-6 -4 -15 -20 -20 -37 l-10 -30 -35 -17 -35 -18 -7 -22 -6 -23 -1 20 c-1 11 -8 31 -17 43 l-16 23 -31 -3 -32 -3 0 -49 0 -49 17 -10 17 -11 25 14 26 14 14 -19 14 -19 73 17 74 17 55 -14 c149 -36 237 -139 248 -288 l4 -66 -25 -55 c-14 -31 -44 -76 -66 -100 l-42 -45 -55 -26 -55 -26 -72 0 -72 0 -54 30 -53 29 -18 -9 c-26 -14 -59 -63 -66 -98 l-6 -29 30 -22 c38 -26 63 -27 85 -1 32 38 82 18 101 -41 l11 -34 37 -3 c20 -2 46 2 58 8 l20 11 0 23 c0 27 15 42 50 51 l26 6 18 -20 c23 -25 58 -27 92 -4 l26 16 -7 43 -6 43 20 20 21 21 42 -6 43 -6 18 30 c22 38 22 47 -4 82 l-22 28 7 35 6 34 39 12 c44 13 53 28 44 72 l-6 31 -34 14 -34 15 -10 26 -10 27 10 23 c6 13 15 23 21 23 18 0 11 46 -11 74 l-22 27 -36 -6 -37 -6 -19 22 -20 21 0 47 0 46 -37 20 -37 20 -29 -28 c-32 -31 -48 -33 -80 -11 l-22 15 0 24 0 24 -19 11 c-23 12 -81 13 -96 2z"/>
    <path d="M14339 5323 c-1 -4 0 -12 1 -18 2 -5 6 -26 9 -45 l6 -35 15 0 15 0 0 50 0 50 -22 3 c-13 2 -24 0 -24 -5z"/>
    <path d="M14427 5323 c-12 -11 -8 -88 5 -101 29 -29 78 5 78 54 0 37 -60 71 -83 47z"/>
    <path d="M14538 5325 c-6 -6 7 -93 15 -101 14 -15 27 11 27 57 l0 49 -18 0 c-10 0 -21 -2 -24 -5z"/>
    <path d="M13699 5306 l-66 -12 -39 -29 c-45 -34 -58 -48 -156 -171 -40 -50 -84 -99 -98 -110 l-25 -19 -72 -3 -72 -4 -5 -15 c-3 -8 -1 -23 4 -34 l11 -19 51 0 c108 0 137 19 283 188 75 87 95 106 155 142 l25 15 227 3 228 3 6 26 7 25 -12 8 c-32 19 -354 24 -452 6z"/>
    <path d="M14212 5308 c-17 -17 -15 -53 3 -68 l15 -12 25 6 25 6 6 25 6 25 -12 15 c-15 18 -51 20 -68 3z"/>
    <path d="M14124 5148 c-4 -5 -2 -20 4 -31 6 -12 13 -30 16 -40 14 -43 44 1 32 48 -6 24 -42 40 -52 23z"/>
    <path d="M14503 5149 l-23 -8 0 -41 0 -40 25 -12 25 -11 20 18 21 19 -3 29 -3 30 -20 12 -20 13 -22 -9z"/>
    <path d="M14210 5106 l0 -44 15 -12 16 -13 25 13 c13 8 27 24 30 37 l6 24 -17 19 -18 20 -29 0 -28 0 0 -44z"/>
    <path d="M14317 5143 c-4 -3 -3 -11 2 -17 5 -6 11 -24 13 -41 5 -47 23 -35 26 18 l3 47 -19 0 c-10 0 -22 -3 -25 -7z"/>
    <path d="M14400 5136 c0 -8 5 -18 10 -21 6 -3 10 -19 10 -36 l0 -29 15 0 15 0 0 50 0 50 -25 0 -25 0 0 -14z"/>
    <path d="M14640 5059 c-14 -5 -36 -20 -50 -33 -14 -13 -41 -29 -60 -36 -19 -7 -41 -18 -47 -23 l-13 -9 0 -52 0 -52 12 -12 c7 -7 20 -12 29 -12 10 0 24 -9 32 -20 7 -10 25 -24 40 -29 l27 -11 25 12 c13 6 27 19 30 29 l6 18 122 3 122 3 30 -27 31 -28 26 0 c26 0 58 22 58 40 0 5 17 10 38 12 l37 3 3 39 3 38 -22 24 -22 23 -46 7 -46 6 -69 46 -69 45 -101 4 -101 3 -25 -11z m98 -41 l11 -11 -10 -19 -10 -18 -49 0 -50 0 0 14 c0 35 81 61 108 34z m136 -9 c48 -28 38 -39 -35 -39 l-59 0 0 30 0 30 29 0 c17 0 46 -9 65 -21z"/>
    <path d="M14048 4973 c-23 -6 -33 -45 -18 -72 l11 -21 23 0 24 0 17 26 16 25 -12 15 c-17 21 -41 31 -61 27z"/>
    <path d="M14163 4954 l-17 -26 15 -27 15 -26 29 0 30 0 9 27 10 27 -12 26 -12 25 -25 0 -25 0 -17 -26z"/>
    <path d="M14276 4962 c-3 -5 1 -15 9 -22 8 -7 15 -24 15 -37 l0 -25 13 5 12 4 0 39 0 39 -22 3 c-11 2 -24 -1 -27 -6z"/>
    <path d="M14376 4933 c3 -21 10 -42 15 -47 l9 -10 10 10 9 9 -6 38 -6 37 -19 0 -19 0 7 -37z"/>
    <path d="M14237 4796 c-3 -7 -3 -32 0 -55 l6 -41 12 0 13 0 5 38 c6 53 -21 98 -36 58z"/>
    <path d="M14332 4758 l3 -51 11 -4 12 -4 4 38 c5 39 -5 73 -23 73 l-10 0 3 -52z"/>
    <path d="M14416 4802 c-3 -6 -3 -31 0 -56 l7 -46 14 0 14 0 -3 52 -3 51 -12 4 c-6 2 -14 0 -17 -5z"/>
    <path d="M14116 4785 c-19 -19 -20 -38 -6 -66 13 -23 43 -25 65 -3 l16 17 -6 26 c-8 30 -5 27 -31 35 l-22 7 -16 -16z"/>
    <path d="M14244 4625 c-15 -37 13 -104 31 -75 11 17 44 11 55 -10 6 -11 20 -20 31 -20 l19 0 12 25 11 25 -9 32 -10 33 -21 3 -22 3 -11 -20 c-6 -12 -19 -21 -29 -21 l-19 0 -5 20 c-6 24 -25 26 -33 5z"/>
    <path d="M14434 4611 c3 -17 9 -45 12 -62 l6 -30 11 4 12 4 0 54 0 54 -23 3 -24 4 6 -31z"/>
    <path d="M14528 4633 c-3 -4 0 -32 5 -61 l9 -53 11 4 12 4 0 54 0 54 -17 3 c-9 2 -18 -1 -20 -5z"/>
  </g>
</svg>